<svg xmlns="http://www.w3.org/2000/svg" width="1600" height="1000" viewBox="0 0 1600 1000">
  <defs>
    <linearGradient id="g" x1="0" x2="1" y1="0" y2="1">
      <stop offset="0%" stop-color="#0f1213"/>
      <stop offset="100%" stop-color="#1f2d33"/>
    </linearGradient>
    <radialGradient id="r" cx="80%" cy="20%" r="60%">
      <stop offset="0%" stop-color="#b7ff3c" stop-opacity="0.22"/>
      <stop offset="100%" stop-color="#b7ff3c" stop-opacity="0"/>
    </radialGradient>
  </defs>
  <rect width="1600" height="1000" fill="url(#g)"/>
  <rect width="1600" height="1000" fill="url(#r)"/>
  <g transform="translate(210,420)">
    <circle cx="230" cy="230" r="88" fill="#0b0f0d" stroke="#b7ff3c" stroke-width="18"/>
    <circle cx="860" cy="230" r="88" fill="#0b0f0d" stroke="#b7ff3c" stroke-width="18"/>
    <path d="M260 120 L410 20 L780 30 L930 140 L1030 140 L1080 210 L960 210 L860 110 L560 100 L460 210 L250 210 Z"
          fill="#2a3630" stroke="#b7ff3c" stroke-width="16" stroke-linejoin="round"/>
    <path d="M420 20 L500 -50 L700 -50 L790 30" fill="none" stroke="#b7ff3c" stroke-width="16" stroke-linecap="round"/>
    <path d="M520 105 L570 5 L725 5 L760 95" fill="none" stroke="#ffffff" stroke-opacity="0.22" stroke-width="12" stroke-linecap="round"/>
    <rect x="520" y="20" width="150" height="55" rx="18" fill="#b7ff3c" opacity="0.9"/>
    <path d="M150 120 L260 120 L250 210 L110 210 Z" fill="#212b27" stroke="#b7ff3c" stroke-width="14" stroke-linejoin="round"/>
    <path d="M930 140 L1115 140 L1180 60" fill="none" stroke="#b7ff3c" stroke-width="14" stroke-linecap="round"/>
    <path d="M410 20 L330 -35" fill="none" stroke="#b7ff3c" stroke-width="14" stroke-linecap="round"/>
    <path d="M460 210 L360 310 M890 210 L990 310" fill="none" stroke="#ffffff" stroke-opacity="0.22" stroke-width="12" stroke-linecap="round"/>
  </g>
  <text x="90" y="120" fill="#b7ff3c" font-family="Arial, Helvetica, sans-serif" font-size="34" font-weight="700" letter-spacing="6">DBS MATEUSZ OGORZAŁEK</text>
  <text x="90" y="850" fill="white" font-family="Arial, Helvetica, sans-serif" font-size="84" font-weight="800">ATV PRO X 700</text>
  <text x="90" y="910" fill="#d8e0dc" font-family="Arial, Helvetica, sans-serif" font-size="34">Mocna jazda i wymagający teren</text>
</svg>